<svg version="1.0" xmlns="http://www.w3.org/2000/svg"
 width="1024" height="1024" viewBox="0 0 1024 1024">
<g transform="translate(0,1024) scale(0.1,-0.1)">
<path class="box" d="M5033 6281 c-45 -27 -80 -50 -78 -53 3 -3 -1 -5 -7 -5 -7 0 -39 -15
-71 -34 -32 -19 -68 -39 -80 -46 -12 -7 -22 -17 -22 -22 0 -5 -4 -13 -9 -18
-5 -5 -6 -3 -2 5 12 20 -2 14 -95 -39 l-89 -51 0 -312 1 -311 269 -154 269
-153 268 154 268 155 0 313 0 313 -30 16 c-16 9 -55 31 -86 49 -61 35 -74 39
-63 20 4 -8 3 -10 -2 -5 -5 5 -9 13 -9 18 0 5 -10 15 -22 22 -12 7 -48 27 -80
46 -32 19 -64 34 -70 34 -7 0 -11 2 -8 5 4 4 -160 103 -168 101 -1 0 -39 -22
-84 -48z m228 -286 c72 -41 133 -75 136 -75 2 0 11 -6 19 -14 11 -12 14 -52
14 -194 l0 -180 -152 -85 -153 -85 -3 188 -2 188 -151 80 -151 80 28 18 c62
41 260 153 271 153 7 1 72 -33 144 -74z"/>
<path class="character" d="M2498 4517 c-114 -36 -179 -131 -186 -273 -6 -104 9 -164 55 -231
117 -172 386 -133 447 65 7 20 4 22 -31 22 -35 0 -40 -3 -51 -33 -15 -41 -57
-73 -115 -89 -81 -21 -169 22 -215 106 -13 23 -17 56 -17 132 0 94 2 104 30
149 55 89 155 118 245 73 33 -17 50 -34 65 -65 18 -39 23 -42 58 -43 35 0 38
2 31 23 -42 135 -179 207 -316 164z"/>
<path class="character" d="M4910 4511 c-113 -40 -174 -146 -174 -302 1 -74 5 -95 31 -151 47
-100 128 -153 233 -152 74 0 125 19 176 66 65 60 88 123 89 243 0 84 -4 108
-23 150 -62 135 -197 194 -332 146z m149 -61 c107 -30 167 -185 126 -325 -57
-198 -302 -205 -366 -10 -16 49 -16 146 0 202 29 105 135 164 240 133z"/>
<path class="character" d="M6961 4519 c-132 -40 -199 -160 -189 -336 10 -172 112 -277 269 -276
157 1 258 120 259 304 0 138 -50 240 -142 287 -52 27 -145 37 -197 21z m159
-81 c74 -38 110 -110 110 -223 0 -131 -51 -209 -153 -236 -82 -22 -171 22
-214 105 -21 39 -29 168 -14 222 16 60 50 104 100 131 56 29 114 30 171 1z"/>
<path class="character" d="M1540 4486 l0 -33 93 0 92 0 3 -271 2 -272 35 0 35 0 0 270 c0 250 1
270 18 271 9 0 53 1 97 2 l80 2 2 33 1 32 -229 0 -229 0 0 -34z"/>
<path class="character" d="M2110 4215 l0 -305 35 0 35 0 0 305 0 305 -35 0 -35 0 0 -305z"/>
<path class="character" d="M2940 4215 l0 -305 35 0 35 0 0 98 0 97 39 45 c21 25 41 43 43 40 3
-3 51 -67 108 -142 101 -136 103 -138 141 -138 22 0 39 3 39 8 0 4 -52 75
-116 157 -64 83 -118 156 -121 163 -3 7 43 64 103 128 60 63 115 124 123 135
13 18 11 19 -32 19 l-45 0 -133 -149 c-74 -82 -137 -150 -141 -150 -5 -1 -8
67 -8 149 l0 150 -35 0 -35 0 0 -305z"/>
<path class="character" d="M3482 4218 l3 -303 185 0 185 0 0 30 0 30 -147 3 -148 3 0 99 0 100
135 0 135 0 0 35 0 35 -135 0 -135 0 0 103 0 102 145 -3 145 -4 0 36 0 36
-185 0 -185 0 2 -302z"/>
<path class="character" d="M3950 4491 c0 -25 5 -31 30 -36 17 -4 54 -6 83 -5 29 2 58 2 64 1 10
-1 13 -65 15 -268 l3 -268 35 0 35 0 3 267 2 267 93 3 92 3 3 33 3 32 -230 0
-231 0 0 -29z"/>
<path class="character" d="M5392 4218 l3 -303 38 -3 37 -3 0 243 0 242 55 -79 c31 -44 106 -153
168 -243 111 -160 112 -162 147 -160 l35 3 3 303 2 302 -40 0 -40 0 -2 -237
-3 -238 -115 165 c-63 91 -137 198 -164 238 -47 68 -52 72 -88 72 l-38 0 2
-302z"/>
<path class="character" d="M6260 4215 l0 -305 35 0 35 0 0 109 0 108 100 5 c126 6 182 31 217
97 27 52 30 124 8 178 -39 92 -86 112 -262 113 l-133 0 0 -305z m305 202 c32
-37 41 -91 24 -142 -20 -57 -60 -75 -171 -75 l-88 0 0 124 c0 145 -11 134 128
126 76 -5 86 -8 107 -33z"/>
<path class="character" d="M7430 4215 l0 -305 35 0 35 0 0 305 0 305 -35 0 -35 0 0 -305z"/>
<path class="character" d="M7650 4216 l0 -306 35 0 35 0 2 242 3 242 166 -240 c161 -232 167
-239 203 -242 l36 -3 0 305 0 306 -35 0 -35 0 -2 -242 -3 -243 -72 105 c-257
376 -257 375 -296 378 l-37 3 0 -305z"/>
<path class="character" d="M8243 4488 l2 -33 80 -2 c44 -1 88 -2 98 -2 16 -1 17 -21 17 -271 l0
-270 35 0 35 0 2 272 3 271 93 0 92 0 0 33 0 34 -229 0 -229 0 1 -32z"/>
</g>
</svg>